<?xml version="1.0" encoding="utf-8"?>
<!-- Generator: Adobe Illustrator 22.1.0, SVG Export Plug-In . SVG Version: 6.00 Build 0)  -->
<svg version="1.1" xmlns="http://www.w3.org/2000/svg" xmlns:xlink="http://www.w3.org/1999/xlink" x="0px" y="0px"
	 viewBox="0 0 256 256" style="enable-background:new 0 0 256 256;" xml:space="preserve">
<style type="text/css">
	.st0{fill:#FFFFFF;}
	.st1{fill:none;stroke:#343337;stroke-miterlimit:10;}
	.st2{fill:#343337;}
	.st3{display:none;}
	.st4{display:inline;}
	.st5{fill:#D6D6D6;}
</style>
<g id="レイヤー_1">
</g>
<g id="レイヤー_2">
	<g>
		<rect class="st0" width="256" height="256"/>
		<rect x="15.5" y="15.5" class="st1" width="225" height="225"/>
		<g>
			<g>
				<path class="st2" d="M54.8,130.4l1.8-1.8c4.1,4.6,10.2,7.5,17,7.5c9.2,0,15.1-4.8,15.1-11.6c0-7.2-5-9.5-10.8-12l-8.4-3.8
					c-4.9-2-11.8-5.2-11.8-13.3c0-7.7,6.9-12.9,16.1-12.9c6.9,0,12.3,3,15.6,6.4l-1.6,1.8c-3.3-3.4-8-5.7-13.9-5.7
					c-8,0-13.4,4.1-13.4,10.3c0,6.7,6.1,9.3,10.3,11l8.4,3.8c6.4,2.7,12.3,5.9,12.3,14.3c0,8.2-7,14.3-17.7,14.3
					C65.3,138.6,59.1,135.1,54.8,130.4z"/>
				<path class="st2" d="M113.2,83.5h31.5v2.3h-28.8v21.8h24.3v2.3h-24.3v25.4h29.7v2.3h-32.3V83.5z"/>
				<path class="st2" d="M161.2,110.4c0-17,8.4-27.9,20-27.9c11.6,0,20,10.8,20,27.9s-8.4,28.2-20,28.2
					C169.5,138.6,161.2,127.4,161.2,110.4z M198.4,110.4c0-15.6-7-25.4-17.2-25.4c-10.2,0-17.2,9.8-17.2,25.4s7,25.7,17.2,25.7
					C191.4,136.1,198.4,126,198.4,110.4z"/>
			</g>
			<g>
				<path class="st2" d="M54.5,170.9l0.6-0.6c1.3,1.4,3.2,2.4,5.3,2.4c2.9,0,4.7-1.5,4.7-3.6c0-2.3-1.6-3-3.4-3.7l-2.6-1.2
					c-1.5-0.6-3.7-1.6-3.7-4.1c0-2.4,2.2-4,5-4c2.2,0,3.8,0.9,4.9,2l-0.5,0.6c-1-1.1-2.5-1.8-4.4-1.8c-2.5,0-4.2,1.3-4.2,3.2
					c0,2.1,1.9,2.9,3.2,3.4l2.6,1.2c2,0.8,3.8,1.8,3.8,4.5c0,2.6-2.2,4.5-5.5,4.5C57.8,173.5,55.8,172.4,54.5,170.9z"/>
				<path class="st2" d="M70.2,172.5H74V157h-3.9v-0.7h8.6v0.7h-3.9v15.5h3.9v0.7h-8.6V172.5z"/>
				<path class="st2" d="M83.3,156.3h1.2l3.2,8.2l1.1,3h0.1l1.1-3l3.2-8.2h1.2v16.9h-0.8v-12.7c0-1,0.1-2.2,0.1-3.3h-0.1l-0.9,2.7
					l-3.5,8.7h-0.7L85,160l-1-2.7h-0.1c0,1,0.1,2.2,0.1,3.3v12.7h-0.8V156.3z"/>
				<path class="st2" d="M98.6,156.3h4.4c3.8,0,5.9,1.2,5.9,4.6c0,3.2-2.2,4.8-5.9,4.8h-3.6v7.5h-0.8V156.3z M102.7,165
					c3.6,0,5.4-1.2,5.4-4.1c0-3-1.7-3.9-5.4-3.9h-3.3v8H102.7z"/>
				<path class="st2" d="M112.7,156.3h0.8v16.2h9v0.7h-9.8V156.3z"/>
				<path class="st2" d="M125.9,156.3h9.8v0.7h-9v6.8h7.6v0.7h-7.6v7.9h9.3v0.7h-10.1V156.3z"/>
				<path class="st2" d="M148.2,156.3h4.4c3.8,0,5.9,1.2,5.9,4.6c0,3.2-2.2,4.8-5.9,4.8H149v7.5h-0.8V156.3z M152.3,165
					c3.6,0,5.4-1.2,5.4-4.1c0-3-1.7-3.9-5.4-3.9H149v8H152.3z"/>
				<path class="st2" d="M165.6,156.3h0.7l6,16.9h-0.9L168,163c-0.7-2-1.3-3.8-1.9-5.9h-0.1c-0.6,2.1-1.2,3.8-1.9,5.9l-3.6,10.1
					h-0.8L165.6,156.3z M162.2,166.4h7.5v0.7h-7.5V166.4z"/>
				<path class="st2" d="M174.5,164.7c0-5.3,2.8-8.7,7.1-8.7c1.9,0,3.4,1,4.3,2l-0.5,0.6c-0.9-1.1-2.2-1.8-3.8-1.8
					c-3.9,0-6.3,3.1-6.3,7.9c0,4.9,2.4,8,6.2,8c1.8,0,3.1-0.7,4.4-2.2l0.5,0.5c-1.3,1.5-2.8,2.4-5,2.4
					C177.4,173.5,174.5,170,174.5,164.7z"/>
				<path class="st2" d="M190.1,156.3h0.8v9.7h0.1l8.8-9.7h1l-9.9,10.9v6h-0.8V156.3z M194.3,162.5l0.6-0.7l6.7,11.4h-1L194.3,162.5
					z"/>
			</g>
		</g>
	</g>
</g>
<g id="レイヤー_3" class="st3">
	
		<image style="display:inline;overflow:visible;" width="2442" height="1628" xlink:href="../../Downloads/isaac-benhesed-249427-unsplash.jpg"  transform="matrix(0.7353 0 0 0.7353 -654 -585)">
	</image>
	<g class="st4">
		<g>
			<path class="st5" d="M-537.3,151.3l2.1-1.4c3.7,5.7,9,8.8,16.6,8.8c8.8,0,15.7-5.7,15.7-14.3c0-5.3-3-8.8-7.6-11.5l-7.8-4.6
				c-4.8-2.8-9.2-6.9-9.2-13.1c0-7.8,6.5-14.7,16.3-14.7c7.1,0,12.5,3.5,15.6,7.8l-1.9,1.6c-3-3.9-7.8-7.1-14.1-7.1
				c-8,0-13.1,6.2-13.1,12c0,5.7,3.7,8.8,7.8,11.1l7.6,4.4c5.5,3.2,9.2,7.2,9.2,13.6c0,10.2-8.1,17-18.7,17
				C-527.2,161-533.4,157.5-537.3,151.3z"/>
			<path class="st5" d="M-468.2,101.6h34.1l-0.5,2.3h-31.5l-4.8,23.9h26.3l-0.5,2.3h-26.2l-5.7,27.6h32.3l-0.5,2.3h-34.8
				L-468.2,101.6z"/>
			<path class="st5" d="M-425.8,138.6c0-17.3,9.5-38,26.9-38c11.7,0,18.2,9.4,18.2,22.4c0,17.3-9.5,38-26.9,38
				C-419.2,161-425.8,151.6-425.8,138.6z M-383.4,123.4c0-12-5.1-20.5-15.7-20.5c-15.6,0-24,20-24,35.3c0,12,5.1,20.5,15.7,20.5
				C-391.9,158.7-383.4,138.7-383.4,123.4z"/>
			<path class="st5" d="M-312.9,151.3l2.1-1.4c3.7,5.7,9,8.8,16.6,8.8c8.8,0,15.7-5.7,15.7-14.3c0-5.3-3-8.8-7.6-11.5l-7.8-4.6
				c-4.8-2.8-9.2-6.9-9.2-13.1c0-7.8,6.5-14.7,16.3-14.7c7.1,0,12.5,3.5,15.6,7.8l-1.9,1.6c-3-3.9-7.8-7.1-14.1-7.1
				c-8,0-13.1,6.2-13.1,12c0,5.7,3.7,8.8,7.8,11.1l7.6,4.4c5.5,3.2,9.2,7.2,9.2,13.6c0,10.2-8.1,17-18.7,17
				C-302.8,161-309,157.5-312.9,151.3z"/>
			<path class="st5" d="M-255.8,157.6h13.4l10.8-53.7h-13.6l0.5-2.3h30l-0.5,2.3h-13.8l-10.8,53.7h13.8l-0.5,2.3h-29.9L-255.8,157.6
				z"/>
			<path class="st5" d="M-191.5,101.6h3.9l5.3,30.7l1.1,8.3h0.4l4.4-8.4l17.8-30.6h3.8l-11.7,58.3h-2.7l8.9-44.4
				c0.7-3.5,1.6-7.3,2.6-11h-0.4c-1.4,3.1-3,6-5.1,9.7l-17.2,29.6h-2.7l-4.9-29.7c-0.4-2.9-1.1-6.5-1.6-9.6h-0.4
				c-0.6,3.6-1.2,7.4-1.9,11l-8.8,44.4h-2.7L-191.5,101.6z"/>
			<path class="st5" d="M-131.4,101.6h14.8c10.6,0,17,4.1,17,13.3c0,12.7-9.4,19.1-24.4,19.1h-11.3l-5.1,26h-2.7L-131.4,101.6z
				 M-124.5,131.7c14.7,0,22.3-5.7,22.3-16.6c0-8-5.5-11.1-15.9-11.1h-11.1l-5.5,27.7H-124.5z"/>
			<path class="st5" d="M-75.2,101.6h2.7l-11.1,56h31.1l-0.5,2.3h-33.8L-75.2,101.6z"/>
			<path class="st5" d="M-24.7,101.6H9.4l-0.5,2.3h-31.5l-4.8,23.9H-1l-0.5,2.3h-26.2l-5.7,27.6H-1l-0.5,2.3h-34.8L-24.7,101.6z"/>
			<path class="st5" d="M87.7,101.6h14.8c10.6,0,17,4.1,17,13.3c0,12.7-9.4,19.1-24.4,19.1H83.8l-5.1,26h-2.7L87.7,101.6z
				 M94.6,131.7c14.7,0,22.3-5.7,22.3-16.6c0-8-5.5-11.1-15.9-11.1H89.8l-5.5,27.7H94.6z"/>
			<path class="st5" d="M155.2,101.6h2.7l8.1,58.3h-2.7l-4.6-35c-0.9-6.6-1.7-13.9-2.6-20.4h-0.4c-3.9,7-7.2,13.2-11,20.1L125,159.9
				h-2.8L155.2,101.6z M136.9,136.6h24.7l-0.1,2.3h-25.4L136.9,136.6z"/>
			<path class="st5" d="M185.1,138.2c0-17,10.8-37.6,29.3-37.6c6.5,0,10.8,3.7,13.4,8.1l-2.1,1.4c-2.3-4.2-6-7.2-11.5-7.2
				c-17,0-26.5,19.8-26.5,34.8c0,11.8,5.1,21,17,21c5.5,0,9.9-2.1,14.3-5.8l1.6,1.8c-4.9,4.1-9.7,6.4-16.1,6.4
				C191.5,161,185.1,151.1,185.1,138.2z"/>
			<path class="st5" d="M246.8,139.1l-4.2,20.9h-2.7l11.7-58.3h2.7l-6.7,33.4h0.4l36.1-33.4h3.4L246.8,139.1z M261.8,124.4
				l17.3,35.5h-2.8L259.8,126L261.8,124.4z"/>
		</g>
		<g>
			<path d="M-545.2,145.7l2.1-1.4c3.7,5.7,9,8.8,16.6,8.8c8.8,0,15.7-5.7,15.7-14.3c0-5.3-3-8.8-7.6-11.5l-7.8-4.6
				c-4.8-2.8-9.2-6.9-9.2-13.1c0-7.8,6.5-14.7,16.3-14.7c7.1,0,12.5,3.5,15.6,7.8l-1.9,1.6c-3-3.9-7.8-7.1-14.1-7.1
				c-8,0-13.1,6.2-13.1,12c0,5.7,3.7,8.8,7.8,11.1l7.6,4.4c5.5,3.2,9.2,7.2,9.2,13.6c0,10.2-8.1,17-18.7,17
				C-535.2,155.4-541.3,151.9-545.2,145.7z"/>
			<path d="M-476.1,96.1h34.1l-0.5,2.3H-474l-4.8,23.9h26.3l-0.5,2.3h-26.2l-5.7,27.6h32.3l-0.5,2.3h-34.8L-476.1,96.1z"/>
			<path d="M-433.7,133c0-17.3,9.5-38,26.9-38c11.7,0,18.2,9.4,18.2,22.4c0,17.3-9.5,38-26.9,38C-427.2,155.4-433.7,146.1-433.7,133
				z M-391.3,117.8c0-12-5.1-20.5-15.7-20.5c-15.6,0-24,20-24,35.3c0,12,5.1,20.5,15.7,20.5C-399.8,153.1-391.3,133.2-391.3,117.8z"
				/>
			<path d="M-320.8,145.7l2.1-1.4c3.7,5.7,9,8.8,16.6,8.8c8.8,0,15.7-5.7,15.7-14.3c0-5.3-3-8.8-7.6-11.5l-7.8-4.6
				c-4.8-2.8-9.2-6.9-9.2-13.1c0-7.8,6.5-14.7,16.3-14.7c7.1,0,12.5,3.5,15.6,7.8l-1.9,1.6c-3-3.9-7.8-7.1-14.1-7.1
				c-8,0-13.1,6.2-13.1,12c0,5.7,3.7,8.8,7.8,11.1l7.6,4.4c5.5,3.2,9.2,7.2,9.2,13.6c0,10.2-8.1,17-18.7,17
				C-310.7,155.4-316.9,151.9-320.8,145.7z"/>
			<path d="M-263.7,152.1h13.4l10.8-53.7h-13.6l0.5-2.3h30l-0.5,2.3h-13.8l-10.8,53.7h13.8l-0.5,2.3h-29.9L-263.7,152.1z"/>
			<path d="M-199.4,96.1h3.9l5.3,30.7l1.1,8.3h0.4l4.4-8.4l17.8-30.6h3.8l-11.7,58.3h-2.7l8.9-44.4c0.7-3.5,1.6-7.3,2.6-11h-0.4
				c-1.4,3.1-3,6-5.1,9.7l-17.2,29.6h-2.7l-4.9-29.7c-0.4-2.9-1.1-6.5-1.6-9.6h-0.4c-0.6,3.6-1.2,7.4-1.9,11l-8.8,44.4h-2.7
				L-199.4,96.1z"/>
			<path d="M-139.3,96.1h14.8c10.6,0,17,4.1,17,13.3c0,12.7-9.4,19.1-24.4,19.1h-11.3l-5.1,26h-2.7L-139.3,96.1z M-132.4,126.1
				c14.7,0,22.3-5.7,22.3-16.6c0-8-5.5-11.1-15.9-11.1h-11.1l-5.5,27.7H-132.4z"/>
			<path d="M-83.1,96.1h2.7l-11.1,56h31.1l-0.5,2.3h-33.8L-83.1,96.1z"/>
			<path d="M-32.6,96.1H1.5L1,98.4h-31.5l-4.8,23.9h26.3l-0.5,2.3h-26.2l-5.7,27.6h32.3l-0.5,2.3h-34.8L-32.6,96.1z"/>
			<path d="M79.8,96.1h14.8c10.6,0,17,4.1,17,13.3c0,12.7-9.4,19.1-24.4,19.1H75.9l-5.1,26h-2.7L79.8,96.1z M86.7,126.1
				c14.7,0,22.3-5.7,22.3-16.6c0-8-5.5-11.1-15.9-11.1H81.9l-5.5,27.7H86.7z"/>
			<path d="M147.3,96.1h2.7l8.1,58.3h-2.7l-4.6-35c-0.9-6.6-1.7-13.9-2.6-20.4h-0.4c-3.9,7-7.2,13.2-11,20.1l-19.8,35.3h-2.8
				L147.3,96.1z M128.9,131.1h24.7l-0.1,2.3h-25.4L128.9,131.1z"/>
			<path d="M177.1,132.6c0-17,10.8-37.6,29.3-37.6c6.5,0,10.8,3.7,13.4,8.1l-2.1,1.4c-2.3-4.2-6-7.2-11.5-7.2
				c-17,0-26.5,19.8-26.5,34.8c0,11.8,5.1,21,17,21c5.5,0,9.9-2.1,14.3-5.8l1.6,1.8c-4.9,4.1-9.7,6.4-16.1,6.4
				C183.5,155.4,177.1,145.5,177.1,132.6z"/>
			<path d="M238.8,133.5l-4.2,20.9h-2.7l11.7-58.3h2.7l-6.7,33.4h0.4l36.1-33.4h3.4L238.8,133.5z M253.8,118.9l17.3,35.5h-2.8
				l-16.4-33.9L253.8,118.9z"/>
		</g>
	</g>
</g>
</svg>
